<svg width="180" height="20" viewBox="0 0 206 20" fill="none" xmlns="http://www.w3.org/2000/svg">
  <g clip-path="url(#clip0_9002_1359)">
  <path d="M38.267 5.01925L40.702 2.52887V0.0355225H23.6627L21.2306 2.52887V19.9734H38.267L40.702 17.4801V14.9897H26.0977V12.4963H33.3999L35.832 10.003V7.5126H26.0977V5.01925H38.267Z" fill="#79F555"></path>
  <path d="M44.8528 0.0355225L42.4207 2.52887V5.01925H49.7228V19.9734H52.1549L54.59 17.4801V5.01925H59.4571L61.8921 2.52887V0.0355225H44.8528Z" fill="#79F555"></path>
  <path d="M149.013 7.52142L151.448 5.03103H158.75L161.182 2.53769V0.0473022H149.013L144.145 5.03103V12.5081H158.75L156.315 14.9985H146.58L144.145 17.4918V19.9822H158.75L163.617 14.9985V7.52142H149.013Z" fill="#79F555"></path>
  <path d="M191.399 14.9985V0.0473022H188.964L186.529 2.53769V19.9822H203.568L206 17.4918V14.9985H191.399Z" fill="#79F555"></path>
  <path d="M66.7622 0.0355225L59.46 7.5126V19.9734H61.895L64.3301 17.4801V14.9867H74.0643V19.9705H76.4994L78.9344 17.4771V0.0355225H66.7651H66.7622ZM74.0643 10.003H64.3301L69.1972 5.01925H74.0643V10.003Z" fill="#79F555"></path>
  <path d="M97.6808 0.0355225L95.2487 2.52887V10.003L90.3786 14.9897H85.5115V0.0355225H83.0794L80.6443 2.52887V19.9734H92.8136L100.116 12.4963V0.0355225H97.6808Z" fill="#79F555"></path>
  <path d="M137.554 19.9822L127.82 8.76957V17.4918L125.385 19.9822L122.952 20V2.51994L125.367 0.0473022H142.421V2.51994L139.989 5.03103L131.479 5.03399L142.421 17.4918L139.989 19.9822H137.554Z" fill="#79F555"></path>
  <path d="M118.802 5.01925L121.234 2.52887V0.0355225H104.197L101.762 2.52887V19.9734H118.802L121.234 17.4801V14.9897H106.632V12.4963H113.932L116.367 10.003V7.5126H106.632V5.01925H118.802Z" fill="#79F555"></path>
  <path d="M172.638 0.0473022L165.336 7.52438V19.9852H167.771L170.206 17.4918V14.9985H179.94V19.9822H182.375L184.81 17.4889V0.0473022H172.641H172.638ZM179.94 10.0148H170.206L175.073 5.03103H179.94V10.0148Z" fill="#79F555"></path>
  <path d="M17.0682 0L12.1924 4.99261V0H4.8787L0 4.99261V19.9734H2.4379L4.87581 17.4771V7.48891L7.3166 4.99261V13.7356H9.75451L14.6303 8.74002V19.9734H17.0682L19.5061 17.4771V0H17.0682Z" fill="#79F555"></path>
  </g>
  <defs>
  <clipPath id="clip0_9002_1359">
  <rect width="206" height="20" fill="white"></rect>
  </clipPath>
  </defs>
  </svg>